<svg xmlns="http://www.w3.org/2000/svg" viewBox="0 0 655.71 352.69"><defs><style>.cls-1{opacity:0.2;}.cls-2{fill:#0496ff;}.cls-3{fill:#fff;}.cls-4{fill:none;stroke:#0496ff;stroke-miterlimit:10;stroke-width:2px;}</style></defs><g id="Layer_2" data-name="Layer 2"><g id="Layer_10" data-name="Layer 10"><g class="cls-1"><path class="cls-2" d="M308.82,183.66c.29,97.09-58.57,174.12-161.55,168.76C44.84,347.09-8.65,275.52,1.14,176.1,11,75.92,63.13,15.61,149.54,14.5,233.1,13.44,308.51,78.1,308.82,183.66Z"/><path class="cls-3" d="M247.28,183.61c-1.3,45.5-27.65,80.12-71.41,77.93-41.48-2.07-66.51-34.22-66.33-77.93.21-47,25.12-77.89,67.46-77.92C221.17,105.66,248.58,138.14,247.28,183.61Z"/><circle class="cls-2" cx="203.13" cy="186.33" r="17.57"/><path class="cls-2" d="M655.71,183.66c.29,97.09-58.57,174.12-161.55,168.76C391.73,347.09,338.24,275.52,348,176.1c9.88-100.18,62-160.49,148.4-161.6C580,13.44,655.4,78.1,655.71,183.66Z"/><path class="cls-3" d="M600.29,183.61c-1.3,45.5-27.65,80.12-71.41,77.93-41.48-2.07-66.51-34.22-66.32-77.93.2-47,25.11-77.89,67.45-77.92C574.18,105.66,601.6,138.14,600.29,183.61Z"/><circle class="cls-2" cx="556.14" cy="186.33" r="17.57"/><path class="cls-4" d="M93.23,6A162.91,162.91,0,0,0,33.1,36.76"/><path class="cls-4" d="M481.93,1a212.6,212.6,0,0,0-68.35,21.66"/></g></g></g></svg>