<svg xmlns="http://www.w3.org/2000/svg" viewBox="0 0 179.73 179.73"><defs><style>.cls-1{fill:#0496ff;}.cls-2{fill:#fff;}.cls-3{fill:none;stroke:#fff;stroke-miterlimit:10;stroke-width:0.45px;}</style></defs><g id="Layer_2" data-name="Layer 2"><g id="Layer_10" data-name="Layer 10"><rect class="cls-1" width="179.73" height="179.73" rx="41.15"/><path class="cls-2" d="M85.61,91.39c.06,21.71-13.1,38.94-36.13,37.74S14.61,111.93,16.8,89.7C19,67.3,30.66,53.81,50,53.56,68.67,53.32,85.54,67.78,85.61,91.39Z"/><path class="cls-1" d="M71.85,91.38c-.3,10.17-6.19,17.92-16,17.43C46.6,108.34,41,101.15,41,91.38,41.09,80.86,46.66,74,56.13,74,66,74,72.14,81.21,71.85,91.38Z"/><circle class="cls-2" cx="61.97" cy="91.99" r="3.93"/><path class="cls-2" d="M163.18,91.39c.07,21.71-13.1,38.94-36.13,37.74S92.19,111.93,94.38,89.7c2.2-22.4,13.86-35.89,33.18-36.14C146.25,53.32,163.11,67.78,163.18,91.39Z"/><path class="cls-1" d="M150.79,91.38c-.29,10.17-6.19,17.92-16,17.43-9.28-.47-14.88-7.66-14.83-17.43C120,80.86,125.6,74,135.07,74,145,74,151.08,81.21,150.79,91.38Z"/><circle class="cls-2" cx="140.92" cy="91.99" r="3.93"/><path class="cls-3" d="M37.4,51.66A36.44,36.44,0,0,0,24,58.54"/><path class="cls-3" d="M124.32,50.54A47.65,47.65,0,0,0,109,55.38"/></g></g></svg>