<svg xmlns="http://www.w3.org/2000/svg" width="17" height="17" viewBox="0 0 17 17">
  <path id="Subtraction_3" data-name="Subtraction 3" d="M12,17H5a5.005,5.005,0,0,1-5-5V5A5.006,5.006,0,0,1,5,0h7a5.006,5.006,0,0,1,5,5v7A5.006,5.006,0,0,1,12,17ZM8.575,4.757a3.743,3.743,0,1,0,0,7.485,3.468,3.468,0,0,0,3.593-3.657,3.408,3.408,0,0,0-.059-.621H8.575V9.248H10.7a2.016,2.016,0,0,1-2.122,1.614,2.362,2.362,0,0,1,0-4.724,2.1,2.1,0,0,1,1.492.577l1.015-.979A3.612,3.612,0,0,0,8.575,4.757Z" fill="#e72736"/>
</svg>
