<svg xmlns="http://www.w3.org/2000/svg" width="548.26" height="397.423" viewBox="0 0 548.26 397.423">
  <g id="Group_9" data-name="Group 9" transform="translate(1027.865 -73.007)">
    <rect id="Rectangle_189" data-name="Rectangle 189" width="66.909" height="38.602" transform="translate(-989.154 430.658)" fill="#0496ff"/>
    <path id="Path_83" data-name="Path 83" d="M-790.346,647.635a19.724,19.724,0,0,0-4.7,2.148,2.091,2.091,0,0,0-.878.744,2.04,2.04,0,0,0-.064,1.318A36.408,36.408,0,0,0-783.4,673.328a3.947,3.947,0,0,0,2.955,1.135,18.735,18.735,0,0,0,8.354-1.226,6.213,6.213,0,0,0,2.629-1.926c1.247-1.726.968-4.109.368-6.151C-771.335,657.527-781.287,645.3-790.346,647.635Z" transform="translate(-82.667 -204.832)" fill="#2f2e41"/>
    <path id="Path_84" data-name="Path 84" d="M-901.568,604.363c.655-4.1-1.525-5.634-4.674-7.772-.861-.585-4.033-3.66-4.881-3.636-1.785.05-3.82,4.12-4.738,5.487-2.9,4.322-5.431,9.089-5.8,14.38-.2,2.861.507,6.16,3,7.576a6.183,6.183,0,0,0,5.381.091,13.339,13.339,0,0,0,4.4-3.353C-905.8,613.84-902.3,608.94-901.568,604.363Z" transform="translate(-37.866 -185.435)" fill="#2f2e41"/>
    <path id="Path_85" data-name="Path 85" d="M-891.31,304.681c-1.77,4.353-1.942,9.164-2.107,13.861-13.415,7.376-26.112,167.826-18.278,170.74a28.387,28.387,0,0,1,11.969,9.468c4.74,2.116,6.986-35.612,14.612-68.968,5.782-25.281,17.213-47.257,20.459-52.018-1.188,11.182,23.6,148.777,26.26,148.543a166.718,166.718,0,0,0,19.514-2.89c2.508-.427-17.7-211.6-18.3-215.2-1.168-7.014-.625-19.93-1.753-19.872-13.425.689-26.227.3-39.63,1.343C-883.888,293.637-888.813,298.54-891.31,304.681Z" transform="translate(-40.574 -76.797)" fill="#2f2e41"/>
    <path id="Path_86" data-name="Path 86" d="M-1027.865,688.555h369.594v1.4h-369.34Z" transform="translate(0 -219.53)" fill="#3f3d56"/>
    <rect id="Rectangle_190" data-name="Rectangle 190" width="303.031" height="59.829" transform="translate(-782.636 262.391)" fill="#e6e6e6"/>
    <rect id="Rectangle_191" data-name="Rectangle 191" width="303.031" height="59.829" transform="translate(-782.636 167.854)" fill="#e6e6e6"/>
    <rect id="Rectangle_192" data-name="Rectangle 192" width="303.031" height="59.829" transform="translate(-782.636 73.007)" fill="#e6e6e6"/>
    <path id="Path_87" data-name="Path 87" d="M-346.544,83.048h-290.11v46.909h290.11Z" transform="translate(-139.522 -3.581)" fill="#fff"/>
    <path id="Path_88" data-name="Path 88" d="M-346.544,230.8h-290.11v46.909h290.11Z" transform="translate(-139.522 -56.275)" fill="#fff"/>
    <path id="Path_89" data-name="Path 89" d="M-346.544,377.417h-290.11v46.909h290.11Z" transform="translate(-139.522 -108.565)" fill="#fff"/>
    <circle id="Ellipse_12" data-name="Ellipse 12" cx="17.871" cy="17.871" r="17.871" transform="translate(-529.334 84.662)" fill="#0496ff"/>
    <rect id="Rectangle_193" data-name="Rectangle 193" width="176.38" height="3.885" transform="translate(-730.577 95.54)" fill="#0496ff"/>
    <rect id="Rectangle_194" data-name="Rectangle 194" width="176.38" height="3.885" transform="translate(-730.577 105.64)" fill="#0496ff"/>
    <circle id="Ellipse_13" data-name="Ellipse 13" cx="17.871" cy="17.871" r="17.871" transform="translate(-529.334 180.286)" fill="#ccc"/>
    <rect id="Rectangle_195" data-name="Rectangle 195" width="176.38" height="3.885" transform="translate(-730.577 191.165)" fill="#ccc"/>
    <rect id="Rectangle_196" data-name="Rectangle 196" width="176.38" height="3.885" transform="translate(-730.577 201.265)" fill="#ccc"/>
    <circle id="Ellipse_14" data-name="Ellipse 14" cx="17.871" cy="17.871" r="17.871" transform="translate(-529.334 274.823)" fill="#ccc"/>
    <rect id="Rectangle_197" data-name="Rectangle 197" width="176.38" height="3.885" transform="translate(-730.577 285.701)" fill="#ccc"/>
    <rect id="Rectangle_198" data-name="Rectangle 198" width="176.38" height="3.885" transform="translate(-730.577 295.803)" fill="#ccc"/>
    <path id="Path_90" data-name="Path 90" d="M-859.526,159.345c-.568,6.65,17.082,5.876,35.611,6.475a67.839,67.839,0,0,0,7.4-.129l1.935-10.453,3.125,9.728c17.3-3.906,6.237-20.017-1.781-36.7-8.6-17.9-22.014-16.187-22.014-16.187s-13.76.548-20.716,12.3C-862.655,135.689-858.768,150.5-859.526,159.345Z" transform="translate(-59.878 -13.918)" fill="#2f2e41"/>
    <path id="Path_91" data-name="Path 91" d="M-827.178,184.685a41.337,41.337,0,0,1,.9-8.288c.43-1.853,2.752-5.152.9-6.346-2.043-1.319-6.576-1.118-8.938-1.19a44.719,44.719,0,0,0-8.7.588,1.91,1.91,0,0,0-1.327.62,1.945,1.945,0,0,0-.224,1.127l.025,4.627c.01,1.818-.038,3.8-1.207,5.2-1.367,1.628-3.963,2.032-4.932,3.924a6.008,6.008,0,0,0-.468,2.6,170.2,170.2,0,0,0,1.121,24.5c.326,2.749.761,5.6,2.332,7.882a18.079,18.079,0,0,0,3.813,3.7,11.1,11.1,0,0,0,3.369,2.072,9.978,9.978,0,0,0,5.79-.386,18.048,18.048,0,0,0,7.974-4.23,21.76,21.76,0,0,0,2.119-2.658q1.786-2.5,3.538-5.03a20.747,20.747,0,0,0,2.427-4.17c1.052-2.686.967-5.663.867-8.546-.1-2.757-.324-5.82-2.336-7.707-1.914-1.795-5.1-2.136-6.4-4.413a7.342,7.342,0,0,1-.634-3.867Z" transform="translate(-62.999 -34.178)" fill="#ffb8b8"/>
    <circle id="Ellipse_15" data-name="Ellipse 15" cx="18.703" cy="18.703" r="18.703" transform="translate(-914.302 105.155)" fill="#ffb8b8"/>
    <path id="Path_92" data-name="Path 92" d="M-865.87,205.97c.438,17.113-12.493,53.793-6.665,68.59,10.944,27.782,47.337,30.367,54.686-2.573,1.891-8.479,2.111-30.852,2.168-38.941-6.087-11.732-11.175-54.7-20.826-24.109C-848.855,241.25-849.844,189.731-865.87,205.97Z" transform="translate(-54.858 -44.63)" fill="#0496ff"/>
    <path id="Path_93" data-name="Path 93" d="M-813.633,195.873c-.272,7.57,2.795,10.929,3.507,19.872,10.344,22.825,2.934,47.174,10.52,69.59,35.21-.571,19.81-8.283,13.755-32.807-7.582-17.875,2.4-45.189-18.519-55.354C-806.351,196.2-811.607,192.731-813.633,195.873Z" transform="translate(-76.398 -43.36)" fill="#575a88"/>
    <path id="Path_94" data-name="Path 94" d="M-849.967,138.137l15.863.322,1.618-10.684,2.591,10.036,4.462.171v-6.2l2.7,6.3,9.67.375-3.885-17.158-18.776-2.914-13.6,7.123Z" transform="translate(-63.446 -16.186)" fill="#2f2e41"/>
    <path id="Path_95" data-name="Path 95" d="M-875.605,282.449c-6.115,3.147-15.072-4.079-21.328-6.375-17.628-9.914,13.926-34.8,5.006-52.517-9.731-22.119-2.076-37.967,23.511-33.663,8.545-.22-1.952,12.709,8.815,13.965C-865.436,229.588-865.791,257.777-875.605,282.449Z" transform="translate(-44.752 -41.434)" fill="#575a88"/>
    <path id="Path_96" data-name="Path 96" d="M-896,307.025c-1.924-2.833-6.387-2.805-6.241,1.721a5.646,5.646,0,0,0,.549,1.962c1.108,2.632,2.337,5.211,3.565,7.785l3.346,7.016c1.693,3.549,3.462,7.2,6.417,9.8a64.321,64.321,0,0,0,2.449-11.674c1.482.02,2.368,1.919,3.847,1.939,1.592.021,2.3-1.286,1.773-1.987a25.6,25.6,0,0,0-9.223-7.955C-893.237,313.846-893.893,310.123-896,307.025Z" transform="translate(-44.802 -82.769)" fill="#ffb8b8"/>
    <path id="Path_97" data-name="Path 97" d="M-893.677,202.419a5.676,5.676,0,0,1,.5,1.9c.726,5.055,1.356,10.146,1.845,15.228a37.156,37.156,0,0,1,.2,7.727,12.469,12.469,0,0,1-2.9,7.043c-1.089,1.193-2.469,2.083-3.648,3.188a17.36,17.36,0,0,0-2.808,3.51,25.476,25.476,0,0,0-3.364,18.175,11.821,11.821,0,0,0,1.359,3.883c.534.887,1.244,1.661,1.727,2.573a3.253,3.253,0,0,1,.236,2.968,7.985,7.985,0,0,0-6.1,3.419,24.209,24.209,0,0,0-3.131,6.5c-.264.728-.783,1.609-1.544,1.46a1.425,1.425,0,0,1-.624-.349,7.676,7.676,0,0,1-2.267-4.783c-.275-1.782-.27-3.608-.69-5.361-.6-2.509-3-13.854-3.189-14.99-.1-.36-2.035-6.691-.376-9.136.466-.663,11.955-31.936,14.176-35.414a62.566,62.566,0,0,1,7.964-9.448C-895.209,201.028-894.245,201.358-893.677,202.419Z" transform="translate(-38.787 -45.475)" fill="#575a88"/>
    <path id="Path_98" data-name="Path 98" d="M-801.882,317.2a25.594,25.594,0,0,0-9.223,7.955c-.531.7.181,2.009,1.773,1.987,1.482-.02,2.368-1.919,3.847-1.939a64.383,64.383,0,0,0,2.449,11.674c2.955-2.6,4.724-6.248,6.417-9.8l3.345-7.016c1.228-2.577,2.458-5.155,3.565-7.785a5.63,5.63,0,0,0,.549-1.962c.146-4.526-4.316-4.552-6.241-1.721C-797.507,311.7-798.161,315.423-801.882,317.2Z" transform="translate(-77.244 -83.33)" fill="#ffb8b8"/>
    <path id="Path_99" data-name="Path 99" d="M-798.412,202.1a62.673,62.673,0,0,1,7.964,9.448c2.221,3.477,13.71,34.75,14.176,35.414,1.659,2.445-.279,8.774-.376,9.136-.192,1.138-2.589,12.484-3.189,14.99-.42,1.754-.417,3.58-.69,5.361a7.668,7.668,0,0,1-2.267,4.783,1.431,1.431,0,0,1-.624.349c-.759.148-1.278-.732-1.544-1.46a24.222,24.222,0,0,0-3.131-6.5,7.984,7.984,0,0,0-6.1-3.419,3.251,3.251,0,0,1,.237-2.968c.484-.916,1.193-1.689,1.727-2.573a11.856,11.856,0,0,0,1.359-3.883A25.482,25.482,0,0,0-794.23,242.6a17.38,17.38,0,0,0-2.808-3.509c-1.179-1.1-2.559-1.993-3.647-3.188a12.466,12.466,0,0,1-2.9-7.043,37.16,37.16,0,0,1,.2-7.727c.49-5.083,1.119-10.174,1.845-15.229a5.706,5.706,0,0,1,.5-1.9C-800.467,202.939-799.5,202.609-798.412,202.1Z" transform="translate(-79.946 -46.04)" fill="#575a88"/>
  </g>
</svg>
