<svg xmlns="http://www.w3.org/2000/svg" viewBox="0 0 247.44 262.2"><defs><style>.cls-1{fill:#f6e58d;}.cls-14,.cls-2{fill:none;}.cls-2{stroke:#fff;stroke-miterlimit:10;stroke-width:1.14px;}.cls-17,.cls-3,.cls-7{fill:#130f40;}.cls-3{opacity:0.2;}.cls-4{fill:#7ed6df;}.cls-5{fill:#dff9fb;}.cls-6{fill:#4834d4;}.cls-8{fill:#fff;}.cls-9{fill:#ffbe76;}.cls-10{fill:#ff7979;}.cls-11{fill:#686de0;}.cls-12{fill:#eb4d4b;}.cls-13{fill:#6ab04c;}.cls-14{stroke:#badc58;stroke-linecap:round;stroke-linejoin:round;stroke-width:0.34px;}.cls-15{fill:#ffc2bd;}.cls-16{fill:#22a6b3;}.cls-17{opacity:0.1;}.cls-18,.cls-19{fill:#fcfffd;}.cls-18{opacity:0.8;}.cls-19{opacity:0.3;}.cls-20{fill:#fde58a;}</style></defs><g id="Layer_2" data-name="Layer 2"><g id="OBJECTS"><path class="cls-1" d="M247,148.81a78.06,78.06,0,0,1-69.3,70.84c-35.46,4-81.86,53.33-137.59,12.21-45-33.23-29-48.85-24.34-137C20.58,4.19,137.63-25.51,174.47,31.25,220.19,101.7,251.61,96.83,247,148.81Z"/><path class="cls-2" d="M241.23,172.8A78.06,78.06,0,0,1,159,228.05C123.44,224.73,68,263.6,21.78,212-15.56,170.29,3.3,158.27,25.84,72.87,49-14.88,169.63-20.14,194.15,42.93,224.57,121.22,256.32,122.85,241.23,172.8Z"/><path class="cls-2" d="M242.77,133.79a73.53,73.53,0,0,1-55.72,74.9c-32.6,8.22-69.67,60.15-126.9,28.82-46.26-25.32-33.28-41.92-40.07-124.86-7-85.2,98.52-127.75,140.1-79.42C211.78,93.21,240.5,84.69,242.77,133.79Z"/><path class="cls-2" d="M225.62,189.6A73.54,73.54,0,0,1,140.52,228C108,219.32,50.4,246.7,15.61,191.51c-28.13-44.62-8.71-52.82,25.65-128.6,35.3-77.86,148.19-63.78,161-1.34C218.25,139.07,247.49,145.58,225.62,189.6Z"/><ellipse class="cls-3" cx="124.89" cy="252.63" rx="112.2" ry="9.57"/><rect class="cls-4" x="161.11" y="89.53" width="35.59" height="60.5" rx="1.41"/><rect class="cls-3" x="161.11" y="142.47" width="35.59" height="7.56"/><rect class="cls-5" x="167.61" y="97.96" width="22.49" height="4.4"/><rect class="cls-5" x="167.61" y="108.39" width="22.49" height="4.4"/><rect class="cls-5" x="167.61" y="118.81" width="22.49" height="4.4"/><circle class="cls-5" cx="178.91" cy="135.16" r="4.02"/><path class="cls-6" d="M180.45,135.16a1.54,1.54,0,1,1-1.54-1.54A1.54,1.54,0,0,1,180.45,135.16Z"/><path class="cls-5" d="M169.8,92.79h17.79c.58,0,.58-.56,0-.56H169.8c-.57,0-.57.56,0,.56Z"/><path class="cls-5" d="M165.7,146.45h26.11c.75,0,.75-.73,0-.73H165.7c-.75,0-.75.73,0,.73Z"/><path class="cls-5" d="M194.38,138.84V94.4c0-.36-.64-.36-.64,0v44.44c0,.36.64.36.64,0Z"/><path class="cls-5" d="M164.87,138.84V94.4c0-.36-.64-.36-.64,0v44.44c0,.36.64.36.64,0Z"/><polygon class="cls-7" points="52.35 253.74 46.91 253.74 55.32 154.81 66.2 154.81 52.35 253.74"/><polygon class="cls-7" points="205.9 253.74 211.34 253.74 202.93 154.81 192.05 154.81 205.9 253.74"/><rect class="cls-8" x="39.14" y="148.94" width="181.15" height="5.95"/><rect class="cls-7" x="67.48" y="87.52" width="87.25" height="47.47"/><rect class="cls-5" x="71.22" y="90.7" width="80.08" height="41.1"/><rect class="cls-9" x="46.91" y="154.81" width="164.44" height="4.29"/><rect class="cls-3" x="46.91" y="154.81" width="164.44" height="2.15"/><rect class="cls-10" x="57.6" y="71.53" width="70.18" height="6.03"/><rect class="cls-11" x="95.27" y="53.45" width="7.36" height="29.11" transform="translate(166.96 -30.94) rotate(90)"/><rect class="cls-8" x="97.76" y="31.38" width="7.36" height="29.11" transform="translate(55.5 147.38) rotate(-90)"/><rect class="cls-12" x="95.27" y="38.74" width="7.36" height="29.11" transform="translate(45.65 152.24) rotate(-90)"/><rect class="cls-13" x="99.86" y="46.1" width="7.36" height="29.11" transform="translate(42.89 164.19) rotate(-90)"/><rect class="cls-4" x="74.68" y="41.91" width="7.36" height="29.11" transform="translate(16 -17.29) rotate(14.01)"/><rect class="cls-10" x="137.31" y="53.45" width="70.18" height="6.03"/><path class="cls-13" d="M158.57,34.71s-5.87-2.24-7.33-5.76,1.6-4.39,1.6-4.39-4-3.17-3.8-5.78a3.73,3.73,0,0,1,2.78-3.22s-6.06-4.66-.53-9.82c0,0,6.35-.56,6.43,5.21a3.87,3.87,0,0,1,4.83,1.11c2,2.6-1.06,8.84-1.06,8.84s2.09-1.71,3.95,0C167.76,23.13,165,31.33,158.57,34.71Z"/><path class="cls-14" d="M151.51,6.11s9.22,15.14,7.06,28.6a62.48,62.48,0,0,1-2.91,11.52"/><polyline class="cls-14" points="150.41 11.43 154.85 12.85 156.22 8.04"/><polyline class="cls-14" points="150.92 13.25 155.68 14.92 156.99 10.03"/><polyline class="cls-14" points="151 20.98 158.28 23.69 162.38 15.31"/><polyline class="cls-14" points="151.35 27.44 158.87 31.72 165.13 22.18"/><polyline class="cls-14" points="151.83 26.02 158.89 29.79 164.15 21.15"/><path class="cls-13" d="M153,36.7s-5.16-14-13.08-20.11c0,0-2.5,3.89-.87,6.56s3.22,2.52,3.22,2.52-3.32,2.66-1.88,6.46,6,2.24,6,2.24a2.33,2.33,0,0,0,.17,2.47C147.48,37.83,149.87,38.68,153,36.7Z"/><path class="cls-14" d="M139.9,16.59A50.54,50.54,0,0,1,153,36.7a29,29,0,0,1,1.28,8.43"/><line class="cls-14" x1="140.63" y1="22.52" x2="145.59" y2="22.95"/><line class="cls-14" x1="141.57" y1="28.81" x2="149.96" y2="30.01"/><line class="cls-14" x1="141.63" y1="31.36" x2="151.29" y2="32.57"/><line class="cls-14" x1="147.82" y1="35.49" x2="152.76" y2="36.11"/><polygon class="cls-10" points="162.59 53.45 149.59 53.45 147.7 39.74 164.49 39.74 162.59 53.45"/><polygon class="cls-12" points="149.29 51.29 149.59 53.45 162.59 53.45 162.89 51.29 149.29 51.29"/><rect class="cls-6" x="169.02" y="15.82" width="28.84" height="37.63"/><rect class="cls-8" x="171.19" y="18.47" width="24.52" height="32.82"/><rect class="cls-15" x="175.14" y="24.13" width="16.67" height="22.31"/><path class="cls-15" d="M85.49,133.05S79.14,147,82,148.94s8.73,1.2,11.73-5.23a107.27,107.27,0,0,0,4.39-10.66Z"/><path class="cls-15" d="M141.71,133.05s6.34,13.93,3.49,15.89-8.73,1.2-11.73-5.23a107.27,107.27,0,0,1-4.39-10.66Z"/><polygon class="cls-15" points="142.99 240.4 142.35 231.49 135.71 231.98 137.31 240.56 142.99 240.4"/><path class="cls-7" d="M138.13,237.25c3-1.39,5.9,1.09,6.71,5.58s6.15,7.55,3.1,8.71c-5.81,2.2-12.09.12-11.31-4.08C137.69,241.76,134.33,239,138.13,237.25Z"/><path class="cls-16" d="M139.25,177.9c-.12,1,4,27.78,4.06,36s-.26,20.2-.26,20.2a14.56,14.56,0,0,0-7.7.79,178,178,0,0,1-6.62-19.61c-3.36-12.26-7.72-26.81-8.22-30.65Z"/><polygon class="cls-15" points="85.42 240.6 86.06 231.69 92.7 232.18 91.11 240.76 85.42 240.6"/><path class="cls-7" d="M90.29,237.46c-3.05-1.39-5.91,1.08-6.72,5.57s-6.15,7.55-3.1,8.71c5.81,2.2,12.09.12,11.31-4.08C90.72,242,94.08,239.19,90.29,237.46Z"/><path class="cls-16" d="M89.17,178.1c.11,1-4,27.79-4.06,36s.25,20.2.25,20.2a14.68,14.68,0,0,1,7.7.79,178.21,178.21,0,0,0,6.62-19.6c3.36-12.27,7.72-26.81,8.22-30.66Z"/><path class="cls-4" d="M90.6,172.72s-8,5.82,0,13.56h45.45s7-5.36.6-13.56Z"/><path class="cls-9" d="M131.61,141.87c7.91,2,13.67-4.59,13.67-4.59-1.21-6.69-8.61-20.22-8.61-20.22h0s-5.75-5.36-23-5.36-23,5.36-23,5.36S83.19,130.59,82,137.28c0,0,5.75,6.58,13.64,4.59.81,4.44,1.48,8.54,1.78,11.37,1.07,10.06-6.81,19.48-6.81,19.48,2.26,5.35,12.64,8.9,23,8.9s20.76-3.55,23-8.9c0,0-7.89-9.42-6.82-19.48C130.13,150.41,130.8,146.3,131.61,141.87Z"/><path class="cls-17" d="M134.63,138c-1.84-.58-2.07-7.79-4.4-13.7-.7,7.36,1.69,11.69-4.31,14.69-12,7-28.7,5.09-29.49-15C94.24,130.2,96.51,137.4,94,138c-3-.74-9.6-.71-10.37-6A32,32,0,0,0,82,137.28s5.75,6.58,13.64,4.59c.81,4.44,1.48,8.54,1.78,11.37,1.07,10.06-6.81,19.48-6.81,19.48,2.26,5.35,12.64,8.9,23,8.9s20.76-3.55,23-8.9c0,0-7.89-9.42-6.82-19.48.3-2.83,1-6.94,1.78-11.37,7.91,2,13.67-4.59,13.67-4.59a26.52,26.52,0,0,0-.85-3.19C142.59,135.48,136.48,138.57,134.63,138Z"/><path class="cls-18" d="M135,117.14c.64.36,1.26,2.17.67,2.34s-7.14-3.73-7.2-4.33S133.78,116.45,135,117.14Z"/><path class="cls-18" d="M92.28,117.14c-.64.36-1.26,2.17-.67,2.34s7.15-3.73,7.2-4.33S93.49,116.45,92.28,117.14Z"/><path class="cls-12" d="M97.62,135.5s-.76-27.23-1.15-36.93c-.41-9.89,2.48-21.71,14.94-19.41C122.84,76.09,127,89,127.09,98.57c.09,9.7,1.37,37.82,1.37,37.82H124l-.7-6.8-1,5.59-12.88.8-.31-6.9-1.35,6.38-4.21.52-.83-20.2-.87,20.2Z"/><path class="cls-19" d="M111.05,81.61c.49,1.19-2.53,1.49-5.27,2.61s-4.14,2.63-4.62,1.44,1.33-3.06,4.06-4.18S110.57,80.42,111.05,81.61Z"/><rect class="cls-20" x="111.41" y="202.55" width="5.6" height="42.32"/><rect class="cls-7" x="111.41" y="202.55" width="5.6" height="42.32"/><rect class="cls-7" x="107.9" y="198.69" width="12.61" height="7.71"/><rect class="cls-9" x="99.68" y="191.43" width="29.05" height="7.26"/><rect class="cls-7" x="99.68" y="191.43" width="29.05" height="7.26"/><path class="cls-11" d="M127.52,172H100.58a6.13,6.13,0,0,1-6-5.09l-3.86-22.42a6.12,6.12,0,0,1,6-7.17h34.66a6.13,6.13,0,0,1,6,7.17l-3.87,22.42A6.12,6.12,0,0,1,127.52,172Z"/><path class="cls-6" d="M125.38,172H102.73a5.17,5.17,0,0,1-5.08-4.3l-3.25-19a5.18,5.18,0,0,1,5.08-6.06h29.15a5.17,5.17,0,0,1,5.07,6.06l-3.25,19A5.16,5.16,0,0,1,125.38,172Z"/><path class="cls-11" d="M137.89,194H89.35a3.87,3.87,0,0,1-3.71-4.94h0a3.87,3.87,0,0,1,3.71-2.79h48.54a3.86,3.86,0,0,1,3.71,2.79h0A3.87,3.87,0,0,1,137.89,194Z"/><path class="cls-6" d="M137.89,189.63H89.35c-1.69,0-3.18.69-3.68,1.7A4.11,4.11,0,0,0,89.35,193h48.54a4.11,4.11,0,0,0,3.68-1.68C141.07,190.32,139.58,189.63,137.89,189.63Z"/><rect class="cls-7" x="104.09" y="150.67" width="19.91" height="8.42" rx="2.58"/><rect class="cls-7" x="110.22" y="154.62" width="7.73" height="44.07"/><polygon class="cls-9" points="111.41 244.87 81.6 248.79 81.6 244.87 111.41 237.65 111.41 244.87"/><polygon class="cls-9" points="117 244.87 146.81 248.79 146.81 244.87 117 237.65 117 244.87"/><path class="cls-7" d="M85.11,250.23a3.51,3.51,0,1,1-3.51-3.51A3.51,3.51,0,0,1,85.11,250.23Z"/><path class="cls-7" d="M150.32,250.23a3.51,3.51,0,1,1-3.51-3.51A3.51,3.51,0,0,1,150.32,250.23Z"/><rect class="cls-7" x="110.86" y="246.01" width="2.59" height="7.02"/><rect class="cls-7" x="114.96" y="246.01" width="2.59" height="7.02"/><rect class="cls-7" x="113.45" y="247.01" width="1.51" height="4.93"/><polygon class="cls-9" points="115.66 248.79 112.75 248.79 111.41 237.65 117 237.65 115.66 248.79"/></g></g></svg>