<svg xmlns="http://www.w3.org/2000/svg" viewBox="0 0 254.88 231.47"><defs><style>.cls-1{fill:#f6e58d;}.cls-2{fill:none;stroke:#fff;stroke-miterlimit:10;stroke-width:1.08px;}.cls-11,.cls-3,.cls-4{fill:#130f40;}.cls-3{opacity:0.2;}.cls-4{opacity:0.25;}.cls-5{fill:#eb4d4b;}.cls-6{fill:#dff9fb;}.cls-7{fill:#ff7979;}.cls-8{fill:#ff4c4a;}.cls-9{fill:#4834d4;}.cls-10{fill:#22a6b3;}.cls-12{fill:#686de0;}.cls-13{fill:#262743;}.cls-14{fill:#ffc2bd;}.cls-15{fill:#fcfffd;opacity:0.15;}.cls-16{fill:#7ed6df;}</style></defs><g id="Layer_2" data-name="Layer 2"><g id="OBJECTS"><path class="cls-1" d="M24.77,44.61C79-11,144.27-10.6,203.26,23.65c26.37,15.31,32,38.56,36.09,64.29,5,31.84,29,49.94-.95,80.67-22,22.5-56.93,35.83-85.8,33.41-45.64-3.82-84.13,25.6-119.24,5.22-26.64-15.47,1.06-45.36-11.17-68.46C-5.67,86.13-5,75.09,24.77,44.61Z"/><path class="cls-2" d="M43.55,34.89c60-48.65,120.76-41,170-.64,22,18,23.34,41.57,22.79,67.37C235.63,133.54,255,154.06,221.8,181c-24.28,19.7-59.13,28.91-85.65,23.29C94.24,195.37,53.37,220,24.07,196c-22.23-18.22,8.65-44.55,1.16-68.67C8.14,72.37,10.65,61.57,43.55,34.89Z"/><path class="cls-2" d="M19.07,54.3C64.7-2.95,126.22-4.67,189,22.1c28.05,12,36.83,33.3,44.4,57.13,9.37,29.47,35.5,44.28,10.27,75.94-18.47,23.17-51,38.93-79.72,39.31-45.41.61-79.18,31.82-116.53,15.89C19.06,198.28,42.14,167.63,26.92,147-7.79,100.09-5.95,85.69,19.07,54.3Z"/><path class="cls-2" d="M33,43.2C88.23-8.92,150.71-6,205.19,29.73c24.36,16,28.4,38.89,30.77,64.17,2.94,31.28,24.88,49.89-5.67,78.71-22.37,21.11-56.64,32.75-84.15,29.26-43.5-5.52-82.1,21.69-114.53.42C7,186.15,35.3,158.06,25,135,1.38,82.53,2.69,71.78,33,43.2Z"/><ellipse class="cls-3" cx="111.54" cy="219.83" rx="98.56" ry="11.64"/><rect class="cls-4" x="39.09" y="112.81" width="138.77" height="6.24"/><rect class="cls-5" x="39.09" y="27.28" width="138.77" height="86.54"/><rect class="cls-6" x="45.83" y="33.65" width="125.28" height="73.8"/><rect class="cls-5" x="104.7" y="33.65" width="7.55" height="73.8"/><path class="cls-7" d="M164.3,136.42c-19.26-2.22-31.52.84-36.42-.86-8.91-3.1-27.79-.27-30.37.92s-5.69,15.67-5.69,15.67l3.49-.7s6.23-6.64,7.67-8.62a2.89,2.89,0,0,0,.62-1.7c0-1.49,19.73,5,24.26,3.32,0,0,28.28,7,37.83,5Z"/><path class="cls-8" d="M164.72,149.58c.34-.05.66-.1,1-.17l-1.39-13c-4.68-.54-8.94-.76-12.79-.82l.9,7.51c-16-1.77-34.43-4.79-49.63-4.79-2,0-3.29,3.17-7.29,8.17,0,.5-1,.5-2.31.11-.81,3-1.36,5.55-1.36,5.55l3.49-.7s6.23-6.64,7.67-8.62a2.89,2.89,0,0,0,.62-1.7c0-1.49,19.73,5,24.26,3.32,0,0,20.45,5.06,32.44,5.32A23.08,23.08,0,0,0,164.72,149.58Z"/><path class="cls-9" d="M176.66,134.53H154.14l2,17.24h24.57s8.63,0,6.61-8.62S176.66,134.53,176.66,134.53Z"/><path class="cls-3" d="M187.32,143.15c-2-8.62-10.66-8.62-10.66-8.62H165.11a14.83,14.83,0,0,1,.85,1.9,13.84,13.84,0,0,1-3.64,15.34h18.39S189.34,151.77,187.32,143.15Z"/><rect class="cls-7" x="40" y="206.3" width="10.67" height="13.53" transform="translate(250.32 139.36) rotate(82.23)"/><rect class="cls-8" x="44.05" y="209.84" width="3.52" height="13.53" transform="translate(254.24 141.94) rotate(82.23)"/><path class="cls-10" d="M46.57,204.34l49.92-11.9,38,.11L121.59,165l-9.34,27.49-15.76,0s7.84-52.49,21.65-53.86,42.56,49.08,42.56,49.08l25.9,22.45c-5.95,14.64-68.36,4.68-86.83,6-23.71,1.75-50.19,6.28-50.19,6.28Z"/><path class="cls-3" d="M160.7,187.66S132,137.2,118.14,138.58s-21.65,53.86-21.65,53.86l15.76,0L121.59,165l12.92,27.56-38-.11s-3.38,4.69,5.87,8.2,26.74,4.8,26.4,7.54-20.17,1.59-26.45,2-45.64,5.13-47,4.3c-2-1.21-2.16-8-2.81-11.57l-6,1.42,3,18.1s26.48-4.53,50.19-6.28c18.47-1.37,80.88,8.59,86.83-6Z"/><path class="cls-9" d="M188.54,212.88s30.35-46.82,13.56-74.56c-3.48-5.76-11.19-9.17-16.16-9.53-9.8-.71-14.82,5.68-14.82,13.73,0,11.47-5.89,37.23-13.76,39.5C157.36,182,161,204.57,188.54,212.88Z"/><path class="cls-3" d="M201.24,179.13c-4.15,8.7-14.47,22.65-25.8,17.57-7.14-3.2-11.05-11.48-13-19.55-1.56,2.56-3.27,4.35-5.08,4.87,0,0,3.68,22.55,31.18,30.86,0,0,18.75-28.92,18.62-54.77A67.4,67.4,0,0,1,201.24,179.13Z"/><path class="cls-7" d="M171.12,123.06,178,138s7.84,1.71,9.35-3.27L184,110.21Z"/><path class="cls-8" d="M186.45,128.44,184,110.21l-12.84,12.85,6.62,14.49A37.88,37.88,0,0,0,186.45,128.44Z"/><path class="cls-7" d="M160.49,118.56c1.28,9.75,2.83,16.33,7.67,17.16s11.41-4.3,15.08-9.72c9.85-14.58,2.55-25-3-27.43C166.6,92.53,159.21,108.81,160.49,118.56Z"/><path class="cls-8" d="M180.34,109.58c3.79,1.39-1.56,6.91,5,6.91,2.45-9.73-.76-16-5.08-17.92-11-4.89-17.8,4-19.37,13C170.21,115.71,176.55,108.2,180.34,109.58Z"/><path class="cls-11" d="M166.79,125.82c5.88.63,12.43,2.64,14.27-4.41s2.47-13.91-1.07-14.9-9.34,5.29-15.68,4-10.66-5.62-6.56-10.63S166.81,97,166.81,97s11.72-5.24,19.27.29,5.14,20.67-.37,27.85-7.56,13.1-17.25,12.77C158.41,137.55,160.92,125.19,166.79,125.82Z"/><path class="cls-12" d="M180.34,97.07c0,.78-2.05,1.55-4.69,1.73s-4.82-.31-4.87-1.09,2-1.55,4.68-1.72S180.29,96.29,180.34,97.07Z"/><path class="cls-12" d="M164.58,98.76c.56.8-.4,2.43-2.14,3.65s-3.61,1.55-4.16.76.4-2.43,2.14-3.64S164,98,164.58,98.76Z"/><path class="cls-7" d="M183.59,113.5s3-4.33,5.2.06c1.42,2.93-.7,10.22-5.93,8.6Z"/><path class="cls-11" d="M173,117.39a1.5,1.5,0,0,1,1.34,1.59,1.33,1.33,0,1,1-2.58.08A1.49,1.49,0,0,1,173,117.39Z"/><path class="cls-11" d="M162.81,117.55a1.68,1.68,0,1,1-1.23,1.68A1.5,1.5,0,0,1,162.81,117.55Z"/><path class="cls-13" d="M167.78,125a2,2,0,0,0,.54-.19.2.2,0,0,0,.08-.27.2.2,0,0,0-.27-.09,1.46,1.46,0,0,1-1.44,0,.75.75,0,0,1-.36-.71,5.24,5.24,0,0,1,.59-1.41c.54-1.07,1.16-2.29.82-3.12a.2.2,0,0,0-.26-.11.22.22,0,0,0-.11.27c.27.65-.33,1.83-.82,2.78a5.29,5.29,0,0,0-.63,1.56,1.14,1.14,0,0,0,.55,1.07A1.75,1.75,0,0,0,167.78,125Z"/><path class="cls-11" d="M169.66,114.88a.7.7,0,0,1,.31-.44c2-1.3,4.37-1.28,7.1,0a.71.71,0,0,1-.62,1.27c-2.28-1.11-4.15-1.16-5.71-.14a.71.71,0,0,1-.53.1.74.74,0,0,1-.45-.3A.76.76,0,0,1,169.66,114.88Z"/><path class="cls-11" d="M164.25,115.61a.7.7,0,0,0,.53.1.72.72,0,0,0,.44-.3.71.71,0,0,0,.1-.53.72.72,0,0,0-.3-.44,6,6,0,0,0-4.5-.83,1.22,1.22,0,0,0-.13,1.46A4.69,4.69,0,0,1,164.25,115.61Z"/><path class="cls-14" d="M166.65,123.8c0,.26.36.46.8.44s.78-.23.77-.49-.37-.45-.8-.44S166.64,123.54,166.65,123.8Z"/><path class="cls-8" d="M186.41,114.82c-.71-.12-1.46.75-1.66,2s.21,2.27.92,2.39,1.46-.76,1.66-2S187.12,114.94,186.41,114.82Z"/><path class="cls-11" d="M40.74,207.15l.78,12.64s-6.21,5.87-11,5.19-14.8-23.49-14.8-26.69,3.95-4.52,7.13-.22S33.14,209.75,40.74,207.15Z"/><path class="cls-15" d="M34.49,216.49c1.79-.59,2.34-4.09,2.51-7.61-5.75.52-10.91-4.92-13.36-8.24-1.32-1.78-2.78-2.43-4-2.34C22.92,206.1,26.46,217.3,34.49,216.49Z"/><path class="cls-16" d="M88.36,146.48l19.22,3.11a1.39,1.39,0,0,1,1,.69l25,44.77a1.38,1.38,0,0,1-1.38,2l-21.23-2.69a1.39,1.39,0,0,1-1.07-.76c-2.39-5-21.67-35-26.27-44C83.07,148.64,87.24,146.3,88.36,146.48Z"/><path class="cls-6" d="M84.9,148.56l19.22,3.11a1.38,1.38,0,0,1,1,.69l25,44.77a1.38,1.38,0,0,1-1.38,2l-21.22-2.69a1.36,1.36,0,0,1-1.07-.76c-2.39-5-18.36-36.18-23-45.18A1.38,1.38,0,0,1,84.9,148.56Z"/><path class="cls-16" d="M171.62,195.31l-41.73.49a1.84,1.84,0,0,0-1.81,2.06h0a1.84,1.84,0,0,0,1.85,1.64l41.72-.3a1.85,1.85,0,0,0,1.84-1.84v-.18A1.85,1.85,0,0,0,171.62,195.31Z"/><path class="cls-7" d="M139.14,195.76l5.23-5.6,11.77.91s23.49-7,25.67-9.57S189,156.25,189,156.25l13.08-.73s-4.83,31-7.35,33.38-21.24,6.39-21.24,6.39Z"/><path class="cls-8" d="M140.25,194.57l-1.11,1.19,34.37-.47s1.32-.23,5.71-1.33Z"/><path class="cls-8" d="M198.07,178.33c1.84-9.19,4-22.81,4-22.81l-13.08.73s-2.48,11.21-4.71,18.75Z"/><path class="cls-16" d="M106.35,175.11c.68,1.83.4,3.62-.62,4s-2.42-.79-3.1-2.62-.4-3.62.63-4S105.67,173.28,106.35,175.11Z"/><path class="cls-9" d="M201,175.68l-17.5-3.19,4.39-24.09a8.89,8.89,0,0,1,10.34-7.16h0a8.89,8.89,0,0,1,7.15,10.34Z"/><path class="cls-3" d="M198.18,141.24h0a8.85,8.85,0,0,0-6.23,1.17,5.17,5.17,0,0,1,3.06.5c5.32,2.58,5,10.68,4.65,15.51-.38,5.87.14,13.11-5.33,16.05l6.62,1.21,4.38-24.1A8.89,8.89,0,0,0,198.18,141.24Z"/></g></g></svg>