<svg xmlns="http://www.w3.org/2000/svg" width="519.794" height="419.266" viewBox="0 0 519.794 419.266">
  <g id="Group_8" data-name="Group 8" transform="translate(0 -0.001)">
    <path id="Path_56" data-name="Path 56" d="M1019.279,706.973c-1.9-15.311-11.393-30.4-26-35.38a71.088,71.088,0,0,1,0,48.807c-2.244,6.07-5.371,12.587-3.261,18.7,1.313,3.806,4.526,6.718,8.117,8.539s7.577,2.689,11.512,3.539l.775.641C1016.667,737.715,1021.184,722.284,1019.279,706.973Z" transform="translate(-505.98 -334.78)" fill="#f0f0f0"/>
    <path id="Path_57" data-name="Path 57" d="M995.9,671.641a60.762,60.762,0,0,1,15.105,34.2,26.165,26.165,0,0,1-.3,8.193,15.007,15.007,0,0,1-3.732,6.961c-1.682,1.848-3.617,3.544-4.821,5.769a9.189,9.189,0,0,0-.449,7.5c1.063,3.048,3.157,5.533,5.29,7.891,2.368,2.619,4.869,5.3,5.876,8.773.122.421.767.207.646-.213-1.751-6.04-7.615-9.471-10.411-14.911a9.306,9.306,0,0,1-.629-8.165c1.069-2.343,3.063-4.094,4.783-5.951a16.015,16.015,0,0,0,3.9-6.67,24.187,24.187,0,0,0,.61-8.151,58.952,58.952,0,0,0-4.306-17.914,61.842,61.842,0,0,0-11.119-17.819c-.291-.326-.739.187-.45.51Z" transform="translate(-508.745 -334.539)" fill="#fff"/>
    <path id="Path_58" data-name="Path 58" d="M1021.64,717.19a9.116,9.116,0,0,0,6.939-9.55c-.035-.436-.714-.4-.679.034a8.441,8.441,0,0,1-6.473,8.87C1021,716.645,1021.217,717.291,1021.64,717.19Z" transform="translate(-519.562 -350.007)" fill="#fff"/>
    <path id="Path_59" data-name="Path 59" d="M1010.654,748.964a17.571,17.571,0,0,1-7.846-10.119c-.123-.42-.769-.207-.646.213a18.277,18.277,0,0,0,8.186,10.514c.377.224.681-.385.306-.607Z" transform="translate(-511.446 -363.338)" fill="#fff"/>
    <path id="Path_60" data-name="Path 60" d="M1006.407,691.778a5.16,5.16,0,0,1-4.89-.248c-.374-.228-.677.38-.306.607a5.782,5.782,0,0,0,5.409.287.352.352,0,0,0,.216-.429A.342.342,0,0,0,1006.407,691.778Z" transform="translate(-510.975 -343.254)" fill="#fff"/>
    <path id="Path_61" data-name="Path 61" d="M918.672,718.034c.23.149.459.3.689.453a67.964,67.964,0,0,1,8.689,6.784c.212.189.425.385.631.58a71.644,71.644,0,0,1,15.559,21.3,69.587,69.587,0,0,1,3.811,9.86c1.406,4.666,2.56,9.837,5.343,13.654a11.973,11.973,0,0,0,.93,1.148H979.48c.057-.029.115-.052.172-.08l1,.046c-.04-.178-.086-.362-.126-.539-.023-.1-.052-.207-.075-.31-.017-.069-.034-.138-.046-.2-.006-.023-.012-.046-.017-.063-.012-.063-.029-.121-.04-.178q-.379-1.541-.78-3.082c0-.006,0-.006-.006-.011a102.3,102.3,0,0,0-8.609-22.6c-.115-.212-.229-.43-.356-.643a66.373,66.373,0,0,0-5.963-9.045,58.643,58.643,0,0,0-3.909-4.471,48.8,48.8,0,0,0-12.213-9.148c-9.022-4.764-19.468-6.589-29.11-3.679C919.16,717.879,918.918,717.954,918.672,718.034Z" transform="translate(-475.88 -353.874)" fill="#f0f0f0"/>
    <path id="Path_62" data-name="Path 62" d="M918.551,719.29A60.762,60.762,0,0,1,951.2,737.5a26.167,26.167,0,0,1,4.7,6.721,15.009,15.009,0,0,1,1.211,7.8c-.23,2.489-.754,5.008-.376,7.509a9.189,9.189,0,0,0,4.158,6.26c2.684,1.794,5.852,2.517,8.975,3.116,3.467.665,7.08,1.3,9.973,3.467.351.262.737-.3.387-.559-5.035-3.768-11.782-2.977-17.29-5.638a9.306,9.306,0,0,1-5.419-6.141c-.557-2.515-.019-5.113.236-7.631a16.015,16.015,0,0,0-.9-7.676,24.19,24.19,0,0,0-4.419-6.877,58.951,58.951,0,0,0-14.223-11.711,61.839,61.839,0,0,0-19.607-7.533c-.428-.085-.478.594-.052.678Z" transform="translate(-475.702 -354.811)" fill="#fff"/>
    <path id="Path_63" data-name="Path 63" d="M970.48,737.146a9.116,9.116,0,0,0-.209-11.8c-.29-.327-.813.108-.522.436a8.442,8.442,0,0,1,.172,10.979C969.642,737.1,970.2,737.481,970.48,737.146Z" transform="translate(-497.606 -357.633)" fill="#fff"/>
    <path id="Path_64" data-name="Path 64" d="M976.877,772.123a17.57,17.57,0,0,1-12.357-3.356c-.352-.261-.738.3-.387.559A18.276,18.276,0,0,0,977,772.792c.436-.048.312-.717-.122-.669Z" transform="translate(-495.19 -376.155)" fill="#fff"/>
    <path id="Path_65" data-name="Path 65" d="M939.055,726.9A5.16,5.16,0,0,1,935,729.648c-.436.043-.312.712.121.669a5.783,5.783,0,0,0,4.492-3.028.351.351,0,0,0-.086-.473A.342.342,0,0,0,939.055,726.9Z" transform="translate(-482.721 -358.284)" fill="#fff"/>
    <path id="Path_66" data-name="Path 66" d="M452.344,184h-2.3V121.129a36.388,36.388,0,0,0-36.388-36.388h-133.2a36.388,36.388,0,0,0-36.388,36.388V466.046a36.388,36.388,0,0,0,36.388,36.388h133.2a36.388,36.388,0,0,0,36.388-36.388V228.753h2.3Z" transform="translate(-188.452 -84.741)" fill="#3f3d56"/>
    <path id="Path_67" data-name="Path 67" d="M422.583,101.236H405.2a12.91,12.91,0,0,1-11.953,17.786H316.934a12.91,12.91,0,0,1-11.953-17.786H288.74a27.174,27.174,0,0,0-27.174,27.174V472.821A27.174,27.174,0,0,0,288.74,500H422.583a27.174,27.174,0,0,0,27.174-27.174h0V128.41a27.174,27.174,0,0,0-27.174-27.174Z" transform="translate(-195.906 -91.768)" fill="#fff"/>
    <rect id="Rectangle_172" data-name="Rectangle 172" width="47.441" height="4.406" transform="translate(130.923 101.99)" fill="#0496ff"/>
    <rect id="Rectangle_173" data-name="Rectangle 173" width="82.685" height="4.406" transform="translate(130.923 117.231)" fill="#e6e6e6"/>
    <rect id="Rectangle_174" data-name="Rectangle 174" width="82.605" height="4.406" transform="translate(130.923 132.471)" fill="#e6e6e6"/>
    <rect id="Rectangle_175" data-name="Rectangle 175" width="35.245" height="35.245" transform="translate(85.846 102.055)" fill="#0496ff"/>
    <rect id="Rectangle_176" data-name="Rectangle 176" width="47.441" height="4.406" transform="translate(130.923 194.507)" fill="#0496ff"/>
    <rect id="Rectangle_177" data-name="Rectangle 177" width="82.685" height="4.406" transform="translate(130.923 209.747)" fill="#e6e6e6"/>
    <rect id="Rectangle_178" data-name="Rectangle 178" width="82.605" height="4.406" transform="translate(130.923 224.988)" fill="#e6e6e6"/>
    <path id="Path_80" data-name="Path 80" d="M0,0H35.245V35.245H0Z" transform="translate(85.846 194.573)" fill="#0496ff"/>
    <rect id="Rectangle_180" data-name="Rectangle 180" width="47.441" height="4.406" transform="translate(130.923 287.024)" fill="#0496ff"/>
    <rect id="Rectangle_181" data-name="Rectangle 181" width="82.685" height="4.406" transform="translate(130.923 302.264)" fill="#e6e6e6"/>
    <rect id="Rectangle_182" data-name="Rectangle 182" width="82.605" height="4.406" transform="translate(130.923 317.505)" fill="#e6e6e6"/>
    <rect id="Rectangle_183" data-name="Rectangle 183" width="35.245" height="35.245" transform="translate(85.846 287.09)" fill="#0496ff"/>
    <path id="Path_68" data-name="Path 68" d="M716.725,695.788l-7.026.387-4.836-26.915,10.369-.57Z" transform="translate(-300.322 -284.908)" fill="#ffb6b6"/>
    <path id="Path_69" data-name="Path 69" d="M859.63,805.58l-22.654,1.247-.016-.287a8.831,8.831,0,0,1,8.332-9.3h0l13.836-.762Z" transform="translate(-441.059 -387.99)" fill="#2f2e41"/>
    <path id="Path_70" data-name="Path 70" d="M468.21,517.047l-.909-6.977,26.48-6.828,1.342,10.3Z" transform="translate(-199.103 -214.416)" fill="#ffb6b6"/>
    <path id="Path_71" data-name="Path 71" d="M602.492,599.887l-2.932-22.5.284-.037a8.831,8.831,0,0,1,9.9,7.615h0l1.791,13.741Z" transform="translate(-339.915 -294.596)" fill="#2f2e41"/>
    <path id="Path_72" data-name="Path 72" d="M765.2,517.74a6.034,6.034,0,0,1,.9.317l24.079-15.178-.257-6.91,10.377-1.751,1.644,12.188a4.591,4.591,0,0,1-2.687,4.811l-29.6,13.138a6.025,6.025,0,1,1-4.455-6.615Z" transform="translate(-407.276 -259.207)" fill="#ffb6b6"/>
    <path id="Path_73" data-name="Path 73" d="M811.38,490.326a2.579,2.579,0,0,1-.944-1.932l-.321-12.958a7.173,7.173,0,0,1,14.126-2.5l4.08,12.348a2.583,2.583,0,0,1-2.01,3.355l-12.852,2.233a2.58,2.58,0,0,1-2.08-.548Z" transform="translate(-429.58 -247.615)" fill="#e4e4e4"/>
    <circle id="Ellipse_8" data-name="Ellipse 8" cx="17.476" cy="17.476" r="17.476" transform="translate(384.344 171.946)" fill="#2f2e41"/>
    <circle id="Ellipse_9" data-name="Ellipse 9" cx="7.231" cy="7.231" r="7.231" transform="translate(400.702 163.797)" fill="#2f2e41"/>
    <path id="Path_74" data-name="Path 74" d="M869.925,370.543a7.232,7.232,0,0,0-6.478-7.192,7.306,7.306,0,0,1,.753-.039,7.231,7.231,0,1,1,0,14.463,7.323,7.323,0,0,1-.753-.039A7.232,7.232,0,0,0,869.925,370.543Z" transform="translate(-452.35 -203.431)" fill="#2f2e41"/>
    <circle id="Ellipse_10" data-name="Ellipse 10" cx="11.05" cy="11.05" r="11.05" transform="translate(390.762 186.322)" fill="#ffb8b8"/>
    <path id="Path_75" data-name="Path 75" d="M775.8,560.483s-.526,13.155-2.631,20,1.579,103.664-.263,106.032-10.524,1.579-10.524,1.579l-8.054-50.444s-1.418-53.482-20.887-54.8-95.507,6.052-95.507,6.052l-1.579-10.787,40.781-8.946s37.361-12.892,57.883-9.472S775.8,560.483,775.8,560.483Z" transform="translate(-355.592 -286.858)" fill="#2f2e41"/>
    <path id="Path_76" data-name="Path 76" d="M845.5,450.122c2.1-1.579,7.367.526,7.367.526l5.788,17.1s-2.894,14.734-5.525,22.89-7.7,44.213-6.647,45.792-17.032-11.325-27.82-15.272-13.155-8.419-13.155-8.419,11.84-16.839,7.893-24.732-.789-16.839-.789-16.839l-1.579-8.946,8.946-5S843.4,451.7,845.5,450.122Z" transform="translate(-427.666 -240.168)" fill="#e4e4e4"/>
    <ellipse id="Ellipse_11" data-name="Ellipse 11" cx="12.052" cy="7.231" rx="12.052" ry="7.231" transform="translate(387.734 178.485)" fill="#2f2e41"/>
    <path id="Path_77" data-name="Path 77" d="M934.4,455.975a6.049,6.049,0,0,0-.323.895l-27,9.009-5.182-4.578-7.931,6.918,8.386,9a4.592,4.592,0,0,0,5.424.969l28.919-14.57a6.025,6.025,0,1,0-2.294-7.638Z" transform="translate(-465.351 -241.419)" fill="#ffb6b6"/>
    <path id="Path_78" data-name="Path 78" d="M898.509,465.655l-9.871,8.526a2.583,2.583,0,0,1-3.869-.571L877.8,462.629a7.173,7.173,0,1,1,10.884-9.345l9.821,8.46a2.583,2.583,0,0,1,0,3.911Z" transform="translate(-457.729 -240.701)" fill="#e4e4e4"/>
    <path id="Path_79" data-name="Path 79" d="M666.275,814.244H147.846a.683.683,0,1,1,0-1.367H666.273a.683.683,0,0,1,0,1.367Z" transform="translate(-147.162 -394.978)" fill="#3f3d56"/>
  </g>
</svg>
