<svg xmlns="http://www.w3.org/2000/svg" width="543" height="324.614" viewBox="0 0 543 324.614">
  <g id="Group_5" data-name="Group 5" transform="translate(0 0)">
    <path id="Path_37" data-name="Path 37" d="M824.924,641.6c-6.952-5.874-11.174-15.154-10.067-24.188s7.966-17.339,16.863-19.257,19.039,3.392,21.741,12.083c1.487-16.756,3.2-34.214,12.109-48.483,8.066-12.92,22.038-22.165,37.179-23.819s31.084,4.593,40.527,16.544,11.755,29.325,5.142,43.046c-4.872,10.108-13.848,17.63-23.253,23.75a150.075,150.075,0,0,1-102.642,22.455Z" transform="translate(-409.19 -320.635)" fill="#f2f2f2"/>
    <path id="Path_38" data-name="Path 38" d="M952.844,545.8a247.631,247.631,0,0,0-72.761,98.387c-.694,1.7,2.068,2.441,2.754.759a244.875,244.875,0,0,1,72.026-97.127c1.426-1.161-.605-3.171-2.019-2.019Z" transform="translate(-433.731 -323.56)" fill="#fff"/>
    <path id="Path_39" data-name="Path 39" d="M339.8,615.669c9.548-8.068,15.348-20.814,13.827-33.222S342.686,558.633,330.466,556s-26.15,4.659-29.861,16.6c-2.043-23.014-4.4-46.993-16.632-66.591-11.079-17.746-30.269-30.444-51.066-32.716s-42.694,6.308-55.664,22.723-16.146,40.279-7.062,59.124c6.692,13.883,19.021,24.215,31.938,32.62A206.127,206.127,0,0,0,343.1,618.6" transform="translate(-165 -296.298)" fill="#f2f2f2"/>
    <path id="Path_40" data-name="Path 40" d="M215.495,484.088a337.258,337.258,0,0,1,47,46.671,342.075,342.075,0,0,1,37.065,54.856,340.682,340.682,0,0,1,15.872,33.608c.953,2.336-2.84,3.353-3.782,1.043a334.76,334.76,0,0,0-30.588-57.874,336.861,336.861,0,0,0-41.024-50.679,336.065,336.065,0,0,0-27.316-24.85c-1.958-1.595.832-4.355,2.774-2.774Z" transform="translate(-182.686 -300.315)" fill="#fff"/>
    <path id="Path_41" data-name="Path 41" d="M652.31,513.859H424.5V280.119a90.29,90.29,0,0,1,90.188-90.188h47.435a90.29,90.29,0,0,1,90.188,90.188Z" transform="translate(-262.536 -189.931)" fill="#f2f2f2"/>
    <path id="Path_42" data-name="Path 42" d="M604.876,513.86H424.5V280.12A89.49,89.49,0,0,1,441.723,227.1c.414-.565.828-1.122,1.254-1.673A90.167,90.167,0,0,1,462.172,206.8c.412-.3.825-.594,1.245-.888a89.975,89.975,0,0,1,19.643-10.273c.413-.156.832-.313,1.252-.463a89.889,89.889,0,0,1,19.416-4.579c.41-.056.832-.1,1.253-.144a91.3,91.3,0,0,1,19.414,0c.42.044.842.088,1.257.144a89.87,89.87,0,0,1,19.411,4.578c.42.15.84.307,1.254.464a89.752,89.752,0,0,1,19.415,10.121c.419.288.839.582,1.252.877a91.118,91.118,0,0,1,11.474,9.714,90.059,90.059,0,0,1,7.942,9.082c.425.549.838,1.107,1.252,1.671a89.49,89.49,0,0,1,17.224,53.018Z" transform="translate(-262.536 -189.932)" fill="#ccc"/>
    <circle id="Ellipse_6" data-name="Ellipse 6" cx="9.986" cy="9.986" r="9.986" transform="translate(317.686 199.412)" fill="#0496ff"/>
    <path id="Path_43" data-name="Path 43" d="M587.8,490.009h-7.652l-3.641-29.514H587.8Z" transform="translate(-216.686 -173.082)" fill="#ffb8b8"/>
    <path id="Path_44" data-name="Path 44" d="M567.987,504.28h14.757v9.292H558.7a9.292,9.292,0,0,1,9.292-9.292Z" transform="translate(-209.992 -189.539)" fill="#2f2e41"/>
    <path id="Path_45" data-name="Path 45" d="M648.8,490.009h-7.652l-3.641-29.514H648.8Z" transform="translate(-239.614 -173.082)" fill="#ffb8b8"/>
    <path id="Path_46" data-name="Path 46" d="M628.987,504.28h14.757v9.292H619.7a9.292,9.292,0,0,1,9.291-9.292Z" transform="translate(-232.92 -189.539)" fill="#2f2e41"/>
    <path id="Path_47" data-name="Path 47" d="M697.4,479.471a6.7,6.7,0,0,1,2.815-9.888l26.012-71.693,12.8,6.985-29.7,68.512a6.741,6.741,0,0,1-11.927,6.084Z" transform="translate(-364.674 -268.094)" fill="#ffb8b8"/>
    <path id="Path_48" data-name="Path 48" d="M808.4,498.418a6.7,6.7,0,0,1-1.806-10.121l-8.058-75.839,14.566.665,3.349,74.6a6.741,6.741,0,0,1-8.051,10.7Z" transform="translate(-403.121 -273.57)" fill="#ffb8b8"/>
    <circle id="Ellipse_7" data-name="Ellipse 7" cx="15.329" cy="15.329" r="15.329" transform="translate(366.709 85.858)" fill="#ffb8b8"/>
    <path id="Path_49" data-name="Path 49" d="M786.349,471.1H740.133l.056-.36c.083-.538,8.237-53.95,2.223-71.424a7.373,7.373,0,0,1,3.788-9.1h0c8.6-4.048,25.1-9.032,39.021,3.064a17.622,17.622,0,0,1,5.9,14.6Z" transform="translate(-381.17 -263.503)" fill="#0496ff"/>
    <path id="Path_50" data-name="Path 50" d="M741.824,427.774l-20.806-4.221,9.753-23.112a8.736,8.736,0,1,1,16.918,4.367Z" transform="translate(-373.986 -266.59)" fill="#0496ff"/>
    <path id="Path_51" data-name="Path 51" d="M796.194,436.586l-1.251-28.674c-.949-5.39,2.137-10.486,6.883-11.319s9.382,2.909,10.335,8.338l4.7,26.793Z" transform="translate(-401.707 -267.564)" fill="#0496ff"/>
    <path id="Path_52" data-name="Path 52" d="M783.311,517.049c7.436,28.321,8.248,64.329,6.241,103.607l-9.986-1.248-18.1-74.9-9.986,76.145-11.234-.624c-3.356-41.212-6.624-76.591-1.248-99.862Z" transform="translate(-379.671 -312.882)" fill="#2f2e41"/>
    <path id="Path_53" data-name="Path 53" d="M776.123,350.415c-2.86,3.046-8.171,1.411-8.543-2.751a5.021,5.021,0,0,1,.006-.971c.193-1.843,1.257-3.517,1-5.463a2.865,2.865,0,0,0-.524-1.341c-2.279-3.052-7.628,1.365-9.779-1.4-1.319-1.694.232-4.361-.781-6.254-1.336-2.5-5.292-1.266-7.773-2.635-2.76-1.523-2.6-5.758-.778-8.334,2.216-3.142,6.1-4.818,9.938-5.06a26.658,26.658,0,0,1,11.23,2.192c4.07,1.586,8.106,3.778,10.611,7.357,3.046,4.352,3.339,10.2,1.816,15.292C781.621,344.145,778.458,347.927,776.123,350.415Z" transform="translate(-383.984 -237.38)" fill="#2f2e41"/>
    <path id="Path_54" data-name="Path 54" d="M727.036,708.679h-460.8a.743.743,0,1,1,0-1.486h460.8a.743.743,0,0,1,0,1.486Z" transform="translate(-202.772 -384.349)" fill="#3f3d56"/>
    <path id="Path_55" data-name="Path 55" d="M582.695,486.545H501.557a4.035,4.035,0,0,1-4.057-4V301.435a4.035,4.035,0,0,1,4.057-4h81.138a4.035,4.035,0,0,1,4.057,4V482.54A4.035,4.035,0,0,1,582.695,486.545Z" transform="translate(-289.974 -230.336)" fill="#fff"/>
    <rect id="Rectangle_146" data-name="Rectangle 146" width="89.252" height="1.248" transform="translate(207.526 125.695)" fill="#ccc"/>
    <rect id="Rectangle_147" data-name="Rectangle 147" width="89.252" height="1.248" transform="translate(207.838 196.916)" fill="#ccc"/>
    <rect id="Rectangle_148" data-name="Rectangle 148" width="1.248" height="189.738" transform="translate(235.612 67.095)" fill="#ccc"/>
    <rect id="Rectangle_149" data-name="Rectangle 149" width="1.248" height="189.738" transform="translate(266.819 67.095)" fill="#ccc"/>
  </g>
</svg>
