<svg xmlns="http://www.w3.org/2000/svg" viewBox="0 0 705.27 112.01"><defs><style>.cls-1{fill:#0496ff;}</style></defs><g id="Layer_2" data-name="Layer 2"><g id="Layer_7" data-name="Layer 7"><path class="cls-1" d="M70.92,33.56A37,37,0,0,1,85.24,48.1a44.43,44.43,0,0,1,5.29,22,44.84,44.84,0,0,1-5.29,22.07,37.36,37.36,0,0,1-14.32,14.69A39.79,39.79,0,0,1,50.86,112q-16,0-23.86-9.4v8.06H0V0H28.34V36.84q8.21-8.36,22.52-8.35A40.25,40.25,0,0,1,70.92,33.56ZM57.12,84.34q4.77-5.15,4.78-14.24t-4.78-14A16.05,16.05,0,0,0,44.89,51a16.05,16.05,0,0,0-12.23,5.07q-4.77,5.07-4.77,14t4.77,14.24a15.94,15.94,0,0,0,12.23,5.15A15.94,15.94,0,0,0,57.12,84.34Z"/><path class="cls-1" d="M103.65,0H132V110.67H103.65Z"/><path class="cls-1" d="M230.89,29.83v80.84h-27V102a29,29,0,0,1-10.74,7.45A35,35,0,0,1,179.88,112q-15.66,0-25-9.25T145.58,75V29.83h28.33V70.4q0,9.09,3.43,13.27t10,4.18a14.13,14.13,0,0,0,11-4.7q4.24-4.7,4.25-14.39V29.83Z"/><path class="cls-1" d="M329.72,77.41H271A16.46,16.46,0,0,0,277.89,87q5.14,3.34,12.9,3.35a27.79,27.79,0,0,0,10.07-1.64,29.69,29.69,0,0,0,8.58-5.37l14.91,15.51Q312.58,112,289.9,112q-14.17,0-24.91-5.37A39.55,39.55,0,0,1,242.47,70.1,39.89,39.89,0,0,1,264.1,33.86a50.91,50.91,0,0,1,44.74-.38A38.14,38.14,0,0,1,324.43,48q5.73,9.48,5.74,22.45C330.17,70.6,330,72.93,329.72,77.41ZM276.1,52.35a16.84,16.84,0,0,0-5.59,10.14h33.11A16.89,16.89,0,0,0,298,52.35a18,18,0,0,0-21.93,0Z"/><path d="M434.28,0V110.67h-27v-8.06q-7.91,9.4-23.72,9.4a40.18,40.18,0,0,1-20.13-5.15,37.13,37.13,0,0,1-14.39-14.69,44.74,44.74,0,0,1-5.3-22.07,44.33,44.33,0,0,1,5.3-22,36.8,36.8,0,0,1,14.39-14.54,40.65,40.65,0,0,1,20.13-5.07q14.48,0,22.38,8.35V0ZM401.62,84.34q4.77-5.15,4.77-14.24t-4.69-14A15.84,15.84,0,0,0,389.54,51a16.05,16.05,0,0,0-12.23,5.07q-4.77,5.07-4.77,14t4.77,14.24a15.94,15.94,0,0,0,12.23,5.15A15.77,15.77,0,0,0,401.62,84.34Z"/><path d="M469.63,106.64A40,40,0,0,1,447.41,70.1a39.83,39.83,0,0,1,22.15-36.32,55,55,0,0,1,47.05,0,39.66,39.66,0,0,1,16.26,14.77,40.29,40.29,0,0,1,5.81,21.55,40.68,40.68,0,0,1-5.81,21.62,40,40,0,0,1-16.26,14.92,54.06,54.06,0,0,1-47,0Zm35.65-22.3q4.77-5.15,4.77-14.24t-4.77-14a17.29,17.29,0,0,0-24.46,0Q476,61.15,476,70.1t4.78,14.24a17.1,17.1,0,0,0,24.46,0Z"/><path d="M569,106.64A40,40,0,0,1,546.74,70.1a39.84,39.84,0,0,1,22.14-36.32,55,55,0,0,1,47.06,0A39.66,39.66,0,0,1,632.2,48.55,40.38,40.38,0,0,1,638,70.1a40.77,40.77,0,0,1-5.81,21.62,40,40,0,0,1-16.26,14.92,54.06,54.06,0,0,1-47,0Zm35.64-22.3q4.78-5.15,4.78-14.24t-4.78-14a17.29,17.29,0,0,0-24.46,0q-4.77,5.07-4.77,14t4.77,14.24a17.1,17.1,0,0,0,24.46,0Z"/><path d="M689.39,31.25a42.69,42.69,0,0,1,15.88-2.76V54a57.48,57.48,0,0,0-6.41-.45q-9.09,0-14.24,4.92t-5.15,15.07v37.14H651.14V29.83h27v9.69A26.44,26.44,0,0,1,689.39,31.25Z"/><circle class="cls-1" cx="51" cy="70.92" r="4.34"/><circle cx="383.44" cy="70.92" r="4.34"/></g></g></svg>