<svg id="Group_3" data-name="Group 3" xmlns="http://www.w3.org/2000/svg" width="527" height="316.854" viewBox="0 0 527 316.854">
  <path id="Path_19" data-name="Path 19" d="M226.816,671.53c-.035-.155-3.445-15.7,3.518-28.617s21.827-18.608,21.977-18.664l.679-.255.16.708c.035.155,3.445,15.7-3.518,28.617s-21.827,18.608-21.977,18.664l-.68.255Zm25.243-45.808c-2.977,1.281-14.728,6.886-20.609,17.792s-4.107,23.807-3.541,27c2.976-1.278,14.722-6.874,20.609-17.792s4.107-23.8,3.541-27Z" transform="translate(-199.32 -355.384)" fill="#f1f1f1"/>
  <path id="Path_20" data-name="Path 20" d="M244.906,660.1c-12.514,7.529-17.333,22.482-17.333,22.482s15.469,2.748,27.983-4.781,17.333-22.482,17.333-22.482S257.419,652.568,244.906,660.1Z" transform="translate(-199.915 -366.692)" fill="#f1f1f1"/>
  <path id="Path_21" data-name="Path 21" d="M541.367,459.395a6.863,6.863,0,0,0-6.636-8.167l-5.795-14.573-9.715,1.362,8.472,20.465a6.9,6.9,0,0,0,13.673.914Z" transform="translate(-306.875 -286.679)" fill="#9f616a"/>
  <path id="Path_22" data-name="Path 22" d="M513.323,401.346l-3.01-7.178-18.758-35.706,1.02-66.069.2-.026c12-1.586,20.124,53.718,20.464,56.073l11.852,40.534,2.821,8.934Z" transform="translate(-296.728 -233.75)" fill="#0496ff"/>
  <path id="Path_23" data-name="Path 23" d="M296.517,464.285h9.12l4.338-35.178H296.515Z" transform="translate(-108.745 -157.372)" fill="#9f616a"/>
  <path id="Path_24" data-name="Path 24" d="M476.741,679.778H494.7a11.447,11.447,0,0,1,11.446,11.445v.373H476.741Z" transform="translate(-291.296 -375.842)" fill="#2f2e41"/>
  <path id="Path_25" data-name="Path 25" d="M164.1,446l7.483,5.214,23.672-26.38-11.044-7.7Z" transform="translate(-60.181 -152.982)" fill="#9f616a"/>
  <path id="Path_26" data-name="Path 26" d="M343.754,656.579l14.736,10.269h0a11.447,11.447,0,0,1,2.847,15.935l-.213.305L337,666.275Z" transform="translate(-240.045 -367.334)" fill="#2f2e41"/>
  <path id="Path_27" data-name="Path 27" d="M431.549,589.906l-.394-65.992-5.739-41.495-10.7,36.491-.021.03-38.771,56.287-15.086-7.644.083-.2c.922-2.193,22.647-53.7,28.486-53.7a3.154,3.154,0,0,0,2.687-1.18c1.714-2.289.318-7.145.3-7.194-1.672-6.932,2.531-9.292,3.368-9.686l2.252-46.479.233.016,61.039,4.281L456.73,511.56,451.221,587.7l-.189.021Z" transform="translate(-248.789 -291.262)" fill="#2f2e41"/>
  <path id="Path_28" data-name="Path 28" d="M479.61,404.382l-.264-.021L413.7,399.069l.162-21.721,3.213-56.714.018-.039,13.085-28.407,9.276-4.2,13.533-.712.033.008,12.35,3.06,12.848,92.227Z" transform="translate(-268.176 -231.895)" fill="#0496ff"/>
  <circle id="Ellipse_5" data-name="Ellipse 5" cx="17.284" cy="17.284" r="17.284" transform="translate(155.183 26.059) rotate(-28.663)" fill="#9f616a"/>
  <path id="Path_29" data-name="Path 29" d="M437.237,244.009v-6.734s-5.431-6.4.543-8.007c0,0,1.629-16.112,15.749-8.593,0,0,19.551-3.222,17.378,8.056,0,0,4.888-2.944,3.258,4.574l-3.151,12.112s1.522-8-3.366-9.075l-2.715-1.611s-7.6,7.519-19.008-1.611c0,0-4.888-1.167-4.345,3.667S437.237,244.009,437.237,244.009Z" transform="translate(-275.979 -206.736)" fill="#2f2e41"/>
  <path id="Path_30" data-name="Path 30" d="M448.315,434.923a6.863,6.863,0,0,0-7.994-6.844L432,414.783l-9.313,3.083L434.7,436.478a6.9,6.9,0,0,0,13.615-1.555Z" transform="translate(-271.474 -278.658)" fill="#9f616a"/>
  <path id="Path_31" data-name="Path 31" d="M420.523,386.672l-15.045-30.545.013-.074c.061-.338,6.117-33.964,10.748-46.324,4.661-12.438,11.041-14.935,11.31-15.036l.135-.05,5.721,5.487-7.925,52.894,8.542,25.51Z" transform="translate(-265.16 -234.597)" fill="#0496ff"/>
  <rect id="Rectangle_139" data-name="Rectangle 139" width="28.605" height="28.605" transform="translate(498.395)" fill="#f1f1f1"/>
  <rect id="Rectangle_140" data-name="Rectangle 140" width="29.749" height="29.749" transform="translate(269.553 113.277)" fill="#f1f1f1"/>
  <path id="Path_32" data-name="Path 32" d="M635.922,337.144h230.3V220.556h-230.3Z" transform="translate(-349.674 -207.426)" fill="#fff"/>
  <path id="Path_33" data-name="Path 33" d="M867.023,337.944h-234.1V217.556h234.1Zm-230.3-3.8h226.5V221.356h-226.5Z" transform="translate(-348.574 -206.326)" fill="#e5e5e5"/>
  <rect id="Rectangle_141" data-name="Rectangle 141" width="177.189" height="5.876" transform="translate(313.892 54.027)" fill="#e5e5e5"/>
  <rect id="Rectangle_142" data-name="Rectangle 142" width="177.189" height="5.876" transform="translate(313.892 68.277)" fill="#e5e5e5"/>
  <rect id="Rectangle_143" data-name="Rectangle 143" width="32.929" height="5.099" transform="translate(458.151 89.318)" fill="#0496ff"/>
  <path id="Path_34" data-name="Path 34" d="M425.8,699.4H184.53a.633.633,0,1,1,0-1.267H425.8a.633.633,0,1,1,0,1.267Z" transform="translate(-183.897 -382.576)" fill="#cbcbcb"/>
</svg>
